<svg cache-id="3434f7062e9743f9bdca97cd6f52d14b" id="dice-icon" xmlns="http://www.w3.org/2000/svg" xmlns:xlink="http://www.w3.org/1999/xlink" viewBox="0 0 300 300" shape-rendering="geometricPrecision" text-rendering="geometricPrecision"><g id="dice-icon-u-facefour" transform="matrix(4.218395 0 0 4.218395-482.759246-412.048121)"><rect id="dice-icon-s-rect1" width="84.679476" height="88.760415" rx="8" ry="8" transform="matrix(.81579 0 0 0.708581 115.459665 101.790465)" fill="#fff" stroke-width="0"/><ellipse id="dice-icon-s-ellipse1" rx="30" ry="30" transform="matrix(.202904 0 0 0.202904 132.750184 117.048153)" fill="#3e3c3c" stroke-width="0"/><ellipse id="dice-icon-s-ellipse2" rx="30" ry="30" transform="matrix(.202904 0 0 0.202904 168.746669 147.333096)" fill="#3e3c3c" stroke-width="0"/><ellipse id="dice-icon-s-ellipse3" rx="30" ry="30" transform="matrix(.202904 0 0 0.202904 132.750184 147.333096)" fill="#3e3c3c" stroke-width="0"/><ellipse id="dice-icon-s-ellipse4" rx="30" ry="30" transform="matrix(.202904 0 0 0.202904 168.746669 117.048153)" fill="#3e3c3c" stroke-width="0"/></g><g id="dice-icon-u-facefour2" transform="matrix(4.218395 0 0 4.218395-482.759246-412.048121)"><rect id="dice-icon-s-rect2" width="84.679476" height="88.760415" rx="8" ry="8" transform="matrix(.81579 0 0 0.708581 115.459665 101.790465)" fill="#fff" stroke-width="0"/><ellipse id="dice-icon-s-ellipse10" rx="30" ry="30" transform="matrix(.202904 0 0 0.202904 150 133.237433)" fill="#d3183e" stroke-width="0"/></g></svg>
